<?xml version="1.0" encoding="utf-8"?>
<!-- Generator: Adobe Illustrator 21.0.2, SVG Export Plug-In . SVG Version: 6.00 Build 0)  -->
<svg version="1.1" id="Calque_1" xmlns="http://www.w3.org/2000/svg" xmlns:xlink="http://www.w3.org/1999/xlink" x="0px" y="0px"
	 viewBox="0 0 60 60" style="enable-background:new 0 0 60 60;" xml:space="preserve">
<style type="text/css">
	.st0{fill:#FFFFFF;}
	.st1{fill:none;stroke:#FFFFFF;stroke-width:2.5;stroke-miterlimit:10;}
</style>
<g>
	<path class="st0" d="M14.9,32.4c0,0.7,0.7,1.3,1.5,1.3c0.8,0,1.5-0.6,1.5-1.3V21.6c0-0.7-0.7-1.3-1.5-1.3c-0.8,0-1.5,0.6-1.5,1.3
		V32.4z"/>
	<path class="st0" d="M21.5,28.5c0.6,0,1.2-0.7,1.2-1.5s-0.5-1.5-1.2-1.5H11.4c-0.6,0-1.2,0.7-1.2,1.5s0.5,1.5,1.2,1.5H21.5z"/>
	<path class="st0" d="M27.9,31.8v10.9c0,2.9,2.3,5.2,5.2,5.2s5.2-2.3,5.2-5.2V31.8H27.9z"/>
	<path class="st1" d="M27.9,16.8h10.4v25.9c0,2.9-2.3,5.2-5.2,5.2s-5.2-2.3-5.2-5.2C27.9,42.7,27.9,16.8,27.9,16.8z"/>
	<path class="st1" d="M26.2,15.1c0-1,0.8-1.7,1.7-1.7h10.4c1,0,1.7,0.8,1.7,1.7c0,1-0.8,1.7-1.7,1.7H27.9
		C26.9,16.8,26.2,16,26.2,15.1z"/>
	<g>
		<path class="st0" d="M30,3c14.9,0,27,12.1,27,27S44.9,57,30,57S3,44.9,3,30S15.1,3,30,3 M30,0C13.4,0,0,13.4,0,30s13.4,30,30,30
			s30-13.4,30-30S46.6,0,30,0L30,0z"/>
	</g>
</g>
</svg>
