<?xml version="1.0" encoding="utf-8"?>
<!-- Generator: Adobe Illustrator 21.0.2, SVG Export Plug-In . SVG Version: 6.00 Build 0)  -->
<svg version="1.1" id="Calque_1" xmlns="http://www.w3.org/2000/svg" xmlns:xlink="http://www.w3.org/1999/xlink" x="0px" y="0px"
	 viewBox="0 0 60 60" style="enable-background:new 0 0 60 60;" xml:space="preserve">
<style type="text/css">
	.st0{fill:none;stroke:#FFFFFF;stroke-width:2;stroke-miterlimit:10;}
	.st1{fill:#FFFFFF;}
</style>
<g>
	<path class="st0" d="M24.3,14.8h11.4v28.5c0,3.2-2.6,5.7-5.7,5.7s-5.7-2.5-5.7-5.7C24.3,43.3,24.3,14.8,24.3,14.8z"/>
	<path class="st1" d="M24.3,31.3v12c0,3.2,2.6,5.7,5.7,5.7s5.7-2.6,5.7-5.7v-12H24.3z"/>
	<path class="st0" d="M22.4,12.9c0-1,0.8-1.9,1.9-1.9h11.4c1,0,1.9,0.8,1.9,1.9c0,1-0.8,1.9-1.9,1.9H24.3
		C23.2,14.8,22.4,14,22.4,12.9z"/>
</g>
</svg>
