<?xml version="1.0" encoding="UTF-8"?>
<svg width="22px" height="14px" viewBox="0 0 22 14" version="1.1" xmlns="http://www.w3.org/2000/svg" xmlns:xlink="http://www.w3.org/1999/xlink">
    <!-- Generator: Sketch 40 (33762) - http://www.bohemiancoding.com/sketch -->
    <title>Aa</title>
    <desc>Created with Sketch.</desc>
    <defs></defs>
    <g id="Page-1" stroke="none" stroke-width="1" fill="none" fill-rule="evenodd">
        <g id="iPhone-7-Copy-52" transform="translate(-218.000000, -96.000000)" fill="#FFFFFF">
            <path d="M218.324,107.884 C218.324,108.292 218.468,108.592 218.756,108.784 C219.044,108.976 219.386,109.072 219.782,109.072 C220.262,109.072 220.622,108.79 220.862,108.226 L221.636,106.174 L223.31,106.174 C224.954,106.174 225.89,106.18 226.118,106.192 L226.946,108.316 C227.15,108.832 227.54,109.09 228.116,109.09 C228.5,109.09 228.827,108.982 229.097,108.766 C229.367,108.55 229.502,108.31 229.502,108.046 C229.502,107.842 229.436,107.584 229.304,107.272 C229.064,106.732 228.614,105.64 227.954,103.996 C227.918,103.936 227.87,103.834 227.81,103.69 C227.75,103.546 227.702,103.444 227.666,103.384 C226.226,99.7719999 225.458,97.8520001 225.362,97.624 C225.122,97.0240001 224.618,96.724 223.85,96.724 C223.55,96.724 223.271,96.7990001 223.013,96.949 C222.755,97.0989999 222.572,97.3059999 222.464,97.57 L220.304,102.862 C219.956,103.762 219.398,105.058 218.63,106.75 C218.426,107.218 218.324,107.596 218.324,107.884 L218.324,107.884 Z M223.886,99.73 C224.018,100.114 224.294,100.915 224.714,102.133 C225.134,103.351 225.368,104.032 225.416,104.176 C224.528,104.2 223.496,104.212 222.32,104.212 C223.244,101.596 223.766,100.102 223.886,99.73 L223.886,99.73 Z M239.15,103.258 L239.168,101.854 C239.168,101.074 238.784,100.684 238.016,100.684 C237.572,100.684 237.26,100.852 237.08,101.188 C237.02,101.32 236.966,101.506 236.918,101.746 C236.414,101.002 235.67,100.63 234.686,100.63 C233.474,100.63 232.469,101.041 231.671,101.863 C230.873,102.685 230.474,103.756 230.474,105.076 C230.474,106.24 230.84,107.206 231.572,107.974 C232.304,108.742 233.264,109.126 234.452,109.126 C235.544,109.126 236.348,108.694 236.864,107.83 C236.96,108.274 237.089,108.592 237.251,108.784 C237.413,108.976 237.644,109.072 237.944,109.072 C238.784,109.072 239.204,108.73 239.204,108.046 C239.156,107.134 239.132,106.444 239.132,105.976 L239.15,103.258 Z M232.976,105.022 C232.976,104.326 233.153,103.771 233.507,103.357 C233.861,102.943 234.32,102.736 234.884,102.736 C235.4,102.736 235.847,102.928 236.225,103.312 C236.603,103.696 236.792,104.218 236.792,104.878 C236.792,105.526 236.6,106.048 236.216,106.444 C235.832,106.84 235.352,107.038 234.776,107.038 C234.272,107.038 233.846,106.846 233.498,106.462 C233.15,106.078 232.976,105.598 232.976,105.022 L232.976,105.022 Z" id="Aa"></path>
        </g>
    </g>
</svg>